<svg width="19" height="11" viewBox="0 0 19 11" fill="none" xmlns="http://www.w3.org/2000/svg">
<path d="M17.0723 0.5C17.2222 0.5 17.3712 0.529596 17.5098 0.586914C17.6483 0.644318 17.7747 0.728937 17.8809 0.834961C17.987 0.94107 18.0714 1.06743 18.1289 1.20605C18.1863 1.34468 18.2158 1.49353 18.2158 1.64355C18.2158 1.79374 18.1864 1.94326 18.1289 2.08203C18.0714 2.22063 17.987 2.34703 17.8809 2.45312L10.167 10.167C10.0609 10.2732 9.93455 10.3575 9.7959 10.415C9.65719 10.4725 9.50856 10.5019 9.3584 10.502C9.20807 10.502 9.05877 10.4727 8.91992 10.415C8.78122 10.3574 8.6549 10.2733 8.54883 10.167V10.166L0.834961 2.45312L0.835938 2.45215C0.7297 2.34607 0.644455 2.2207 0.586914 2.08203C0.529333 1.94322 0.5 1.79384 0.5 1.64355C0.500059 1.49345 0.529407 1.34471 0.586914 1.20605C0.644529 1.06721 0.729507 0.941122 0.835938 0.834961C0.941904 0.728972 1.06762 0.64436 1.20605 0.586914C1.34471 0.529406 1.49345 0.500059 1.64355 0.5C1.79383 0.5 1.94322 0.529332 2.08203 0.586914C2.2207 0.644455 2.34607 0.729701 2.45215 0.835938L9.3584 7.74121L16.2637 0.834961C16.3699 0.728793 16.496 0.644375 16.6348 0.586914C16.7734 0.529491 16.9222 0.500041 17.0723 0.5Z" fill="white" stroke="white"/>
</svg>
