<svg width="291" height="65" viewBox="0 0 291 65" fill="none" xmlns="http://www.w3.org/2000/svg">
<path d="M142.411 24.1593C146.396 20.1863 151.291 18.4585 157.029 18.9217C162.753 19.385 167.16 21.9378 170.139 26.4789C171.517 25.1534 172.715 23.757 174.164 22.6513C178.669 19.2227 183.895 18.2725 189.529 19.1517C197.345 20.3723 202.21 26.4282 203.296 33.5491C203.512 34.9693 203.602 36.4164 203.609 37.8501C203.638 45.4647 203.627 53.0794 203.62 60.6906C203.617 62.6213 202.996 63.6019 201.557 64.0651C199.235 64.8124 197.045 63.3787 197.038 61.0558C197.02 53.2687 197.031 45.485 197.027 37.698C197.027 34.9557 196.634 32.2811 195.101 29.8872C192.526 25.8567 188.591 24.298 183.747 24.8085C178.73 25.336 175.333 27.9599 173.768 32.457C173.259 33.9244 173.079 35.5508 173.064 37.1062C172.996 44.9947 173.039 52.8833 173.028 60.7718C173.025 63.3517 171.041 64.8056 168.585 64.0753C167.117 63.6391 166.36 62.6044 166.349 60.9036C166.327 57.989 166.345 55.0743 166.341 52.1563C166.338 46.9085 166.37 41.6608 166.305 36.4131C166.269 33.6911 165.53 31.1146 163.763 28.8931C160.084 24.2777 152.78 23.3039 147.543 26.6919C143.634 29.2245 142.169 32.8627 142.162 37.1536C142.151 44.7682 142.159 52.3828 142.159 59.9941C142.159 60.4066 142.162 60.8191 142.144 61.2282C142.065 63.0676 140.77 64.2646 138.884 64.2511C136.958 64.2376 135.591 62.9831 135.587 61.1302C135.576 48.2678 135.576 35.4088 135.587 22.5465C135.591 20.6022 136.936 19.2971 138.862 19.2734C140.795 19.2497 142.068 20.5008 142.144 22.5126C142.162 23.0165 142.148 23.5203 142.148 24.0241C142.234 24.068 142.325 24.112 142.411 24.1593Z" fill="#272727"/>
<path d="M225.492 26.9624C227.054 25.6201 228.417 24.227 230.008 23.1146C241.878 14.8068 258.901 18.915 265.105 31.5407C269.912 41.3227 267.391 53.0185 258.692 59.5647C250.725 65.5597 241.697 66.4253 232.522 62.5504C223.642 58.8005 218.939 51.8757 218.759 42.7733C218.495 29.5762 218.705 16.3723 218.733 3.17519C218.737 1.22757 220.1 -0.0167362 222.084 0.000170139C224.129 0.0170765 225.467 1.25124 225.485 3.26986C225.521 7.86501 225.5 12.4602 225.5 17.0553C225.492 20.3385 225.492 23.6251 225.492 26.9624ZM260.856 42.7496C260.852 38.3844 259.922 35.1012 258.292 32.6159C255.042 27.6624 250.292 25.0825 244.139 24.7071C237.777 24.3183 232.515 26.4282 228.836 31.2905C224.4 37.1604 224.046 43.5848 227.4 49.972C231.894 58.5334 242.343 60.9409 250.508 57.4074C257.52 54.3744 260.604 48.8258 260.856 42.7496Z" fill="#EC2323"/>
<path d="M45.1924 43.8353C45.939 49.9622 48.8244 54.6621 54.6672 57.2792C61.473 60.3292 68.1274 59.6664 74.3886 55.6799C75.0126 55.2809 75.6978 54.8954 76.4156 54.7162C77.7248 54.3916 79.1891 55.1727 79.7554 56.3392C80.3216 57.5126 80.0186 58.6385 78.8104 59.5176C75.1857 62.155 71.0813 63.8152 66.5404 64.363C58.3388 65.3537 51.0569 63.4399 45.2429 57.7526C40.5723 53.1811 38.8014 47.4972 38.906 41.2689C38.9817 36.7042 40.0601 32.3525 42.7543 28.4843C46.6928 22.8342 52.2291 19.6152 59.4605 19.0066C66.407 18.4216 72.5312 20.1021 77.429 24.863C82.1286 29.4311 83.885 35.0879 83.7408 41.3332C83.7119 42.5741 82.8571 43.46 81.5587 43.6865C80.9528 43.7913 80.3252 43.8252 79.7085 43.8252C68.7045 43.8319 57.7004 43.8319 46.6964 43.8319C46.242 43.8353 45.7803 43.8353 45.1924 43.8353ZM77.5372 38.6011C77.0143 31.3347 71.3878 23.8452 60.3117 24.5046C52.6907 24.9576 45.3619 31.754 45.5062 38.6011C56.1568 38.6011 66.8073 38.6011 77.5372 38.6011Z" fill="#272727"/>
<path d="M15.444 20.9132C18.6251 20.9132 21.6511 20.9064 24.6771 20.92C25.1857 20.9233 25.705 20.9369 26.1955 21.0451C27.5769 21.346 28.4533 22.4415 28.4173 23.7399C28.3812 25.0147 27.5228 25.9986 26.1486 26.2759C25.6906 26.3706 25.2073 26.3807 24.7348 26.3807C21.7052 26.3909 18.672 26.3841 15.5774 26.3841C15.5269 26.658 15.4476 26.8811 15.4476 27.1009C15.462 34.5431 15.4115 41.9853 15.5269 49.4275C15.5955 53.7589 19.2959 58.0666 24.5797 57.9956C25.5283 57.9821 26.4841 57.972 27.429 58.0531C29.1169 58.1985 30.1809 59.2839 30.3108 60.89C30.4334 62.4116 29.4235 63.7235 27.8005 64.0515C25.4994 64.5147 23.2128 64.2239 20.9586 63.7539C14.4521 62.398 9.55065 57.0692 8.988 50.6177C8.76078 48.0276 8.80046 45.4105 8.78603 42.8069C8.75718 37.3901 8.77882 31.9733 8.77882 26.3807C7.65353 26.3807 6.57513 26.3807 5.49312 26.3807C4.61669 26.3807 3.73666 26.4145 2.86024 26.3638C1.13984 26.2658 0.0145569 25.1871 0.000130114 23.6892C-0.0142967 22.1609 1.1723 20.9876 2.90352 20.9267C4.47243 20.8726 6.04855 20.9098 7.62107 20.9098C7.94567 20.9098 8.27388 20.9098 8.77521 20.9098C8.77521 20.4905 8.77521 20.1321 8.77521 19.7703C8.77521 15.963 8.76078 12.1557 8.78242 8.34839C8.79324 6.14718 10.1566 4.91301 12.3927 5.02121C13.8426 5.09222 15.0364 6.03898 15.2925 7.38472C15.4007 7.95278 15.4332 8.5445 15.4368 9.1227C15.4476 13.0044 15.444 16.876 15.444 20.9132Z" fill="#272727"/>
<path d="M101.8 25.8872C103.412 24.4772 104.664 23.118 106.182 22.1036C111.123 18.7933 116.584 17.9615 122.409 19.6014C124.396 20.1627 125.207 21.5119 124.764 23.0909C124.382 24.4502 123.051 25.0216 120.93 24.8458C117.648 24.5719 114.359 24.3826 111.159 25.3766C106.298 26.8847 102.947 29.7419 102.056 34.6751C101.905 35.5137 101.93 36.3827 101.93 37.2382C101.923 44.917 101.926 52.5993 101.923 60.2782C101.923 60.6535 101.933 61.0356 101.89 61.4075C101.667 63.3247 100.448 64.3289 98.4638 64.2478C96.5126 64.17 95.4162 63.1421 95.409 61.2012C95.3801 53.2823 95.3909 45.3634 95.3873 37.441C95.3873 32.4367 95.3693 27.4291 95.4017 22.4248C95.4162 19.9937 97.2592 18.7696 99.7586 19.4358C100.942 19.7502 101.695 20.4806 101.782 21.6031C101.879 22.9658 101.8 24.3352 101.8 25.8872Z" fill="#272727"/>
<path d="M282.169 41.7586C282.169 35.412 282.158 29.0687 282.173 22.7221C282.18 20.2673 284.095 18.8032 286.465 19.4051C287.673 19.7127 288.409 20.4769 288.661 21.5995C288.798 22.198 288.82 22.8269 288.82 23.4389C288.827 35.6825 288.827 47.9295 288.824 60.1731C288.824 60.5822 288.809 60.9981 288.762 61.4038C288.542 63.1892 287.161 64.3388 285.386 64.2306C283.468 64.1122 282.18 62.895 282.176 61.0995C282.158 54.6582 282.169 48.2067 282.169 41.7586Z" fill="#272727"/>
<path d="M280.814 6.11765C280.825 3.6155 282.91 1.72199 285.582 1.77947C288.204 1.83695 290.239 3.78457 290.206 6.19542C290.174 8.65699 288.075 10.5809 285.427 10.5775C282.737 10.5742 280.803 8.7077 280.814 6.11765Z" fill="#272727"/>
<path d="M237.725 41.7519C237.736 38.9387 240.08 36.8085 243.088 36.8761C246.034 36.9437 248.325 39.128 248.285 41.8398C248.245 44.6091 245.887 46.7697 242.911 46.7663C239.885 46.7629 237.71 44.6632 237.725 41.7519Z" fill="#A6A6A6"/>
</svg>
