<svg width="30" height="30" viewBox="0 0 30 30" fill="none" xmlns="http://www.w3.org/2000/svg">
<path d="M29.12 14.5545C29.119 11.7721 28.3207 9.0483 26.8197 6.70549C25.3187 4.36267 23.1778 2.499 20.6506 1.33509C18.1233 0.171188 15.3155 -0.244201 12.5595 0.138101C9.80344 0.520404 7.21468 1.68439 5.09964 3.49225C2.9846 5.30012 1.43186 7.67616 0.625248 10.3391C-0.181368 13.002 -0.208083 15.8403 0.548266 18.5179C1.30462 21.1955 2.81235 23.6004 4.89299 25.4477C6.97362 27.2951 9.54002 28.5076 12.2883 28.9417V18.7604H8.58456V14.5545H12.2883V11.3446C12.2883 7.69843 14.4612 5.68192 17.7864 5.68192C18.8895 5.6961 19.9899 5.79239 21.0787 5.96999V9.55032H19.2103C18.8973 9.50842 18.5789 9.5374 18.2786 9.63513C17.9783 9.73287 17.7038 9.89685 17.4755 10.1149C17.2471 10.333 17.0707 10.5997 16.9592 10.8952C16.8478 11.1906 16.8042 11.5074 16.8317 11.822V14.5545H20.8729L20.2309 18.7604H16.8317V28.9417C20.2572 28.3989 23.3768 26.6518 25.6293 24.0145C27.8819 21.3773 29.1196 18.0229 29.12 14.5545Z" fill="white"/>
<path d="M20.2262 18.7601L20.8681 14.5543H16.8269V11.8217C16.7994 11.5071 16.843 11.1904 16.9545 10.8949C17.0659 10.5994 17.2423 10.3328 17.4707 10.1147C17.6991 9.89657 17.9736 9.73259 18.2739 9.63486C18.5741 9.53712 18.8926 9.50814 19.2056 9.55004H21.041V5.96971C19.9522 5.79211 18.8518 5.69582 17.7487 5.68164C14.4565 5.68164 12.2507 7.69815 12.2507 11.3443V14.5543H8.54688V18.7601H12.2507V28.9414C13.7563 29.1719 15.2883 29.1719 16.794 28.9414V18.7601H20.2262Z" fill="#272727"/>
</svg>
